<svg width="41" height="58" viewBox="0 0 41 58" fill="none" xmlns="http://www.w3.org/2000/svg">
<g clip-path="url(#clip0_724_123)">
<path d="M12.2561 30.3367C15.3337 31.7112 20.166 31.9551 20.166 31.9551C20.2741 31.9576 20.3798 31.958 20.4858 31.9586V31.9589C20.4905 31.9589 20.4953 31.9588 20.5 31.9588C20.5047 31.9588 20.5097 31.9589 20.5144 31.9589V31.9586C20.6205 31.958 20.7267 31.9572 20.8342 31.9551C20.8342 31.9551 25.6664 31.7112 28.7439 30.3366C28.7439 30.3366 29.1837 30.2333 29.1979 29.2247C29.1979 29.2247 29.0396 24.8052 27.7014 22.8182C27.7014 22.8182 27.366 22.3033 26.4161 21.949C26.4161 21.949 23.3173 21.0048 23.1085 20.2026C23.1085 20.2026 22.082 22.8605 20.5002 22.8306C18.9186 22.8605 17.8918 20.2028 17.8918 20.2028C17.6829 21.0049 14.5844 21.9491 14.5844 21.9491C13.6413 22.2889 13.2988 22.8183 13.2988 22.8183C11.9606 24.8052 11.8024 29.2247 11.8024 29.2247C11.8164 30.2333 12.2561 30.3367 12.2561 30.3367Z" fill="#247CB2"/>
<path d="M17.0874 17.0488C17.3151 18.9606 18.9582 20.9406 20.4479 20.9406C22.1614 20.9406 23.7873 18.8551 24.0429 17.0489C24.1366 16.9821 24.2988 16.8155 24.3528 16.439C24.3528 16.439 24.7164 15.1324 24.2306 15.272C24.4043 14.77 24.9627 12.8042 23.8811 11.5844C23.8811 11.5844 23.3768 10.8876 22.1383 10.5182C22.0889 10.4842 22.0494 10.4479 21.9975 10.4114C21.9975 10.4114 22.0255 10.4455 22.0583 10.4983C21.9928 10.4818 21.9199 10.4654 21.8471 10.4478C21.7791 10.3739 21.6995 10.3011 21.6173 10.2249C21.6173 10.2249 21.6949 10.3011 21.7816 10.4337C21.7443 10.4242 21.7182 10.4114 21.6855 10.409C21.6312 10.3211 21.5612 10.2366 21.4717 10.1498C21.4717 10.1498 21.5093 10.2155 21.5609 10.321C21.3263 10.1544 20.872 9.76857 20.872 9.33813C20.872 9.33813 20.5821 9.4707 20.4203 9.71347C20.3508 9.60522 20.4109 9.47773 20.4109 9.47773C20.2795 9.55162 19.9378 9.82724 19.8298 10.2014L19.7318 10.0689C19.5325 9.84015 19.1817 10.0161 19.1817 10.0161C19.1817 10.0161 17.3733 10.7984 16.849 12.4206C16.849 12.4206 16.5464 13.1501 16.9499 15.2977C16.374 15.0267 16.7669 16.4389 16.7669 16.4389C16.8281 16.8178 16.9843 16.9844 17.0874 17.0488Z" fill="#247CB2"/>
<path d="M32.9328 3.20866V0.930847H29.2924V3.20866H11.7081V0.930847H8.06968V3.20866H0.469099V57.0692H40.5308V3.20866H32.9328ZM2.55959 54.9862V5.29292H8.06991V8.20635H11.7083V5.29292H29.2972V8.20635H32.9331V5.29292H38.4455L38.4457 54.9862H2.55959Z" fill="#247CB2"/>
<path d="M28.6078 47.9536H7.39302V50.0647H28.6078V47.9536Z" fill="#247CB2"/>
<path d="M34.8472 35.5888H7.38968V37.6904H34.8472V35.5888Z" fill="#247CB2"/>
<path d="M32.769 39.8137H7.38979V41.9272H32.769V39.8137Z" fill="#247CB2"/>
<path d="M30.6862 43.9188H7.38979V46.0182H30.6862V43.9188Z" fill="#247CB2"/>
</g>
<defs>
<clipPath id="clip0_724_123">
<rect width="40" height="56.1383" fill="white" transform="translate(0.499992 0.930847)"/>
</clipPath>
</defs>
</svg>
