<svg width="800" height="640" viewBox="0 0 800 640" fill="none" xmlns="http://www.w3.org/2000/svg">
<g clip-path="url(#clip0_776_40)">
<path fill-rule="evenodd" clip-rule="evenodd" d="M251.6 639.992C553.48 639.992 718.6 393.734 718.6 180.207C718.6 173.197 718.6 166.239 718.12 159.308C750.24 136.467 777.96 108.106 800 75.6559C770.08 88.7307 738.28 97.3051 705.76 101.086C740 80.8827 765.64 49.143 777.92 11.691C745.68 30.5154 710.44 43.8009 673.68 50.9293C611.52 -14.1295 507.56 -17.2816 441.44 43.9176C398.84 83.378 380.72 142.213 393.96 198.332C262 191.794 139.04 130.439 55.68 29.5035C12.12 103.344 34.4 197.772 106.52 245.187C80.4 244.439 54.84 237.515 32 224.992V227.043C32.04 303.955 87.12 370.181 163.68 385.421C139.52 391.919 114.16 392.862 89.6 388.175C111.08 454.022 172.72 499.122 242.92 500.421C184.8 545.395 113 569.816 39.08 569.738C26.04 569.698 13 568.949 0 567.414C75.08 614.829 162.4 639.993 251.6 639.875" fill="black"/>
</g>
<defs>
<clipPath id="clip0_776_40">
<rect width="800" height="640" fill="white"/>
</clipPath>
</defs>
</svg>
