<svg width="80" height="82" viewBox="0 0 80 82" fill="none" xmlns="http://www.w3.org/2000/svg">
<path fill-rule="evenodd" clip-rule="evenodd" d="M53.218 55.4391V29.4647C53.2179 29.0206 53.0414 28.5946 52.7273 28.2806C52.4132 27.9665 51.9872 27.7901 51.543 27.7901H25.5991V0.97879H78.3247C78.5446 0.978747 78.7625 1.02204 78.9657 1.1062C79.169 1.19035 79.3537 1.31372 79.5093 1.46927C79.6648 1.62481 79.7882 1.80947 79.8724 2.01271C79.9566 2.21595 80 2.43379 80 2.65378V55.4391H53.218Z" fill="#247CB2"/>
<path opacity="0.405" fill-rule="evenodd" clip-rule="evenodd" d="M25.599 0.97879V27.7901H0.837432C0.671831 27.79 0.50996 27.7409 0.372269 27.6489C0.234579 27.5569 0.127249 27.4262 0.0638399 27.2732C0.000430816 27.1202 -0.0162117 26.9519 0.0160152 26.7894C0.048242 26.627 0.127892 26.4778 0.244902 26.3606L25.599 0.97879ZM53.2179 80.2267V55.4391H79.9999L54.6478 80.8185C54.5307 80.9356 54.3815 81.0153 54.219 81.0477C54.0566 81.08 53.8882 81.0634 53.7352 81.0001C53.5822 80.9367 53.4514 80.8294 53.3593 80.6918C53.2672 80.5541 53.218 80.3923 53.2179 80.2267ZM25.599 27.7901H52.3803C52.6024 27.7901 52.8154 27.8783 52.9725 28.0353C53.1296 28.1923 53.2178 28.4053 53.2179 28.6274V55.4391H27.274C27.054 55.4391 26.8362 55.3957 26.633 55.3116C26.4298 55.2274 26.2451 55.104 26.0896 54.9485C25.934 54.7929 25.8107 54.6083 25.7265 54.4051C25.6423 54.2018 25.599 53.984 25.599 53.7641V27.7901Z" fill="#247CB2"/>
</svg>
